# xmcd
#
# Track frame offsets: 
#        182
#        21832
#        52950
#        70827
#        83832
#        97805
#        120282
#        128782
#        152507
#        175392
#        197597
#
# Disc length: 3009 seconds
#
# Revision: 4
# Processed by: cddbd v1.5.2PL0 Copyright (c) Steve Scherf et al.
# Submitted via: ExactAudioCopyFreeDBPlugin 1.0
#
DISCID=7f0bbf0b
DTITLE=Sally Oldfield - Milestones 2
DYEAR=1989
DGENRE=New Wave
TTITLE0=Rare Lightining
TTITLE1=Strange Day In Berlin
TTITLE2=Man Child
TTITLE3=Songs Of The Quendi A) Night Time
TTITLE4=Wampum Song
TTITLE5=C) Nenya
TTITLE6=D) Land Of The Sun
TTITLE7=Man Of Storm
TTITLE8=Madala
TTITLE9=Woman Of The Night
TTITLE10=My Damsel Heart
EXTD=1989 Castle YEAR: 1989
EXTT0=
EXTT1=
EXTT2=
EXTT3=
EXTT4=
EXTT5=
EXTT6=
EXTT7=
EXTT8=
EXTT9=
EXTT10=
PLAYORDER=
